<?xml version="1.0" standalone="no"?>
<!DOCTYPE svg PUBLIC "-//W3C//DTD SVG 20010904//EN"
 "http://www.w3.org/TR/2001/REC-SVG-20010904/DTD/svg10.dtd">
<svg version="1.0" xmlns="http://www.w3.org/2000/svg"
 width="450.000000pt" height="450.000000pt" viewBox="0 0 450.000000 450.000000"
 preserveAspectRatio="xMidYMid meet">

<g transform="translate(0.000000,450.000000) scale(0.100000,-0.100000)"
fill="#000000" stroke="none">
<path d="M1710 4005 l0 -45 -90 0 -90 0 0 -45 0 -45 -90 0 -90 0 0 -45 0 -45
-90 0 -90 0 0 -45 0 -45 -45 0 -45 0 0 -45 0 -45 -45 0 -45 0 0 -45 0 -45 -45
0 -45 0 0 -45 0 -45 -45 0 -45 0 0 -45 0 -45 -45 0 -45 0 0 -90 0 -90 -45 0
-45 0 0 -90 0 -90 -45 0 -45 0 0 -90 0 -90 -45 0 -45 0 0 -540 0 -540 45 0 45
0 0 -90 0 -90 45 0 45 0 0 -90 0 -90 45 0 45 0 0 -90 0 -90 45 0 45 0 0 -45 0
-45 45 0 45 0 0 -45 0 -45 45 0 45 0 0 -45 0 -45 45 0 45 0 0 -45 0 -45 45 0
45 0 0 -45 0 -45 90 0 90 0 0 -45 0 -45 90 0 90 0 0 -45 0 -45 90 0 90 0 0
-45 0 -45 540 0 540 0 0 45 0 45 90 0 90 0 0 45 0 45 90 0 90 0 0 45 0 44 88
3 87 3 3 43 3 42 45 0 44 0 0 45 0 45 45 0 45 0 0 45 0 45 45 0 45 0 0 45 0
45 45 0 45 0 0 45 0 45 45 0 45 0 0 90 0 90 45 0 45 0 0 90 0 90 45 0 45 0 0
90 0 90 45 0 45 0 0 540 0 540 -45 0 -45 0 0 90 0 90 -45 0 -45 0 0 90 0 90
-45 0 -45 0 0 90 0 90 -45 0 -45 0 0 45 0 45 -45 0 -45 0 0 45 0 45 -45 0 -45
0 0 45 0 45 -45 0 -45 0 0 45 0 45 -45 0 -45 0 0 45 0 45 -90 0 -90 0 0 45 0
45 -90 0 -90 0 0 45 0 45 -90 0 -90 0 0 45 0 45 -540 0 -540 0 0 -45z m1080
-180 l0 -45 90 0 90 0 0 -45 0 -45 90 0 90 0 0 -45 0 -45 90 0 90 0 0 -45 0
-45 45 0 45 0 0 -45 0 -45 45 0 45 0 0 -45 0 -45 45 0 45 0 0 -90 0 -90 45 0
45 0 0 -90 0 -90 45 0 45 0 0 -90 0 -90 45 0 45 0 0 -540 0 -540 -45 0 -45 0
0 -90 0 -90 -45 0 -45 0 0 -90 0 -90 -45 0 -45 0 0 -90 0 -90 -45 0 -45 0 0
-45 0 -45 -45 0 -45 0 0 -45 0 -45 -45 0 -45 0 0 -45 0 -45 -90 0 -90 0 0 -45
0 -45 -90 0 -90 0 0 -45 0 -45 -90 0 -90 0 0 -45 0 -45 -540 0 -540 0 0 45 0
45 -90 0 -90 0 0 45 0 45 -90 0 -90 0 0 45 0 45 -90 0 -90 0 0 45 0 45 -45 0
-45 0 0 45 0 45 -45 0 -45 0 0 45 0 45 -45 0 -45 0 0 90 0 90 -45 0 -45 0 0
90 0 90 -45 0 -45 0 0 90 0 90 -45 0 -45 0 0 540 0 540 45 0 45 0 0 90 0 90
45 0 45 0 0 90 0 90 45 0 45 0 0 90 0 90 45 0 45 0 0 45 0 45 45 0 45 0 0 45
0 45 45 0 45 0 0 45 0 45 90 0 90 0 0 45 0 45 90 0 90 0 0 45 0 45 90 0 90 0
0 45 0 45 540 0 540 0 0 -45z"/>
<path d="M1530 2925 l0 -45 -45 0 -45 0 0 -135 0 -135 45 0 45 0 0 -45 0 -45
135 0 135 0 0 45 0 45 45 0 45 0 0 135 0 135 -45 0 -45 0 0 45 0 45 -135 0
-135 0 0 -45z"/>
<path d="M2700 2925 l0 -45 -45 0 -45 0 0 -135 0 -135 45 0 45 0 0 -45 0 -45
135 0 135 0 0 45 0 45 45 0 45 0 0 135 0 135 -45 0 -45 0 0 45 0 45 -135 0
-135 0 0 -45z"/>
<path d="M1260 1845 l0 -135 45 0 45 0 0 -45 0 -45 45 0 45 0 0 -45 0 -45 45
0 45 0 0 -45 0 -45 45 0 45 0 0 -45 0 -45 45 0 45 0 0 -45 0 -45 90 0 90 0 0
-45 0 -45 360 0 360 0 0 45 0 45 90 0 90 0 0 45 0 45 45 0 45 0 0 45 0 45 45
0 45 0 0 45 0 45 45 0 45 0 0 45 0 45 45 0 45 0 0 45 0 45 45 0 45 0 0 135 0
135 -90 0 -90 0 0 -90 0 -90 -45 0 -45 0 0 -45 0 -45 -45 0 -45 0 0 -45 0 -45
-45 0 -45 0 0 -45 0 -45 -45 0 -45 0 0 -45 0 -45 -45 0 -45 0 0 -45 0 -45
-360 0 -360 0 0 45 0 45 -45 0 -45 0 0 45 0 45 -45 0 -45 0 0 45 0 45 -45 0
-45 0 0 45 0 45 -45 0 -45 0 0 45 0 45 -45 0 -45 0 0 90 0 90 -90 0 -90 0 0
-135z"/>
</g>
</svg>
